HIERARCHY
ROOT Hips
{
  OFFSET 5.80788e-005 67.184 3.4734
  CHANNELS 6 Xposition Yposition Zposition Zrotation Xrotation Yrotation
  JOINT Chest
  {
    OFFSET 0 8.7983 -4.7612
    CHANNELS 6 Xposition Yposition Zposition Zrotation Xrotation Yrotation
    JOINT Chest2
    {
      OFFSET 0 8.0291 0.4195
      CHANNELS 6 Xposition Yposition Zposition Zrotation Xrotation Yrotation
      JOINT Chest3
      {
        OFFSET 0 9.9351 -2.2114
        CHANNELS 6 Xposition Yposition Zposition Zrotation Xrotation Yrotation
        JOINT Neck
        {
          OFFSET 0 22.3885 -0.4656
          CHANNELS 6 Xposition Yposition Zposition Zrotation Xrotation Yrotation
          JOINT Head
          {
            OFFSET -0.0001 12.643 3.4389
            CHANNELS 6 Xposition Yposition Zposition Zrotation Xrotation Yrotation
            End Site
            {
              OFFSET 0.0001 17.6655 0.5274
            }
          }
        }
        JOINT LeftCollar
        {
          OFFSET 2.2603 21.606 7.4023
          CHANNELS 6 Xposition Yposition Zposition Zrotation Xrotation Yrotation
          JOINT LeftShoulder
          {
            OFFSET 13.5163 -1.1332 -5.0146
            CHANNELS 6 Xposition Yposition Zposition Zrotation Xrotation Yrotation
            JOINT LeftElbow
            {
              OFFSET -0.0995 -28.05 -0.2431
              CHANNELS 6 Xposition Yposition Zposition Zrotation Xrotation Yrotation
              JOINT LeftWrist
              {
                OFFSET 0.0679 -23.3996 -0.1402
                CHANNELS 6 Xposition Yposition Zposition Zrotation Xrotation Yrotation
                JOINT LeftFinger1
                {
                  OFFSET 0.7932 -9.069 2.5189
                  CHANNELS 6 Xposition Yposition Zposition Zrotation Xrotation Yrotation
                  JOINT LeftFinger11
                  {
                    OFFSET -0.8272 -3.3923 0.5977
                    CHANNELS 6 Xposition Yposition Zposition Zrotation Xrotation Yrotation
                    JOINT LeftFinger12
                    {
                      OFFSET -0.5649 -2.3158 0.4082
                      CHANNELS 6 Xposition Yposition Zposition Zrotation Xrotation Yrotation
                      End Site
                      {
                        OFFSET -0.4919 -1.6479 0.2673
                      }
                    }
                  }
                }
                JOINT LeftFinger2
                {
                  OFFSET 0.9159 -9.2044 0.2193
                  CHANNELS 6 Xposition Yposition Zposition Zrotation Xrotation Yrotation
                  JOINT LeftFinger21
                  {
                    OFFSET 0.0117 -4.1944 -0.0248
                    CHANNELS 6 Xposition Yposition Zposition Zrotation Xrotation Yrotation
                    JOINT LeftFinger22
                    {
                      OFFSET 0.0071 -2.3249 -0.0142
                      CHANNELS 6 Xposition Yposition Zposition Zrotation Xrotation Yrotation
                      End Site
                      {
                        OFFSET -0.1475 -2.0882 0.0028
                      }
                    }
                  }
                }
                JOINT LeftFinger3
                {
                  OFFSET 0.6113 -8.7231 -2.0637
                  CHANNELS 6 Xposition Yposition Zposition Zrotation Xrotation Yrotation
                  JOINT LeftFinger31
                  {
                    OFFSET -0.1927 -3.8059 -0.2383
                    CHANNELS 6 Xposition Yposition Zposition Zrotation Xrotation Yrotation
                    JOINT LeftFinger32
                    {
                      OFFSET -0.1091 -2.1688 -0.1362
                      CHANNELS 6 Xposition Yposition Zposition Zrotation Xrotation Yrotation
                      End Site
                      {
                        OFFSET -0.2358 -1.9176 -0.0906
                      }
                    }
                  }
                }
                JOINT LeftFinger4
                {
                  OFFSET -0.6151 -8.0947 -3.5641
                  CHANNELS 6 Xposition Yposition Zposition Zrotation Xrotation Yrotation
                  JOINT LeftFinger41
                  {
                    OFFSET -0.4882 -2.341 -0.6462
                    CHANNELS 6 Xposition Yposition Zposition Zrotation Xrotation Yrotation
                    JOINT LeftFinger42
                    {
                      OFFSET -0.3575 -1.7167 -0.4742
                      CHANNELS 6 Xposition Yposition Zposition Zrotation Xrotation Yrotation
                      End Site
                      {
                        OFFSET -0.4187 -1.5237 -0.3496
                      }
                    }
                  }
                }
                JOINT LeftFinger0
                {
                  OFFSET -1.42 -1.8761 1.4223
                  CHANNELS 6 Xposition Yposition Zposition Zrotation Xrotation Yrotation
                  JOINT LeftFinger01
                  {
                    OFFSET -1.1471 -3.4929 2.6334
                    CHANNELS 6 Xposition Yposition Zposition Zrotation Xrotation Yrotation
                    JOINT LeftFinger02
                    {
                      OFFSET -0.823 -2.3 1.6571
                      CHANNELS 6 Xposition Yposition Zposition Zrotation Xrotation Yrotation
                      End Site
                      {
                        OFFSET -0.5822 -1.6914 1.1582
                      }
                    }
                  }
                }
              }
            }
          }
        }
        JOINT RightCollar
        {
          OFFSET -2.2603 21.606 7.4023
          CHANNELS 6 Xposition Yposition Zposition Zrotation Xrotation Yrotation
          JOINT RightShoulder
          {
            OFFSET -13.5187 -1.1334 -5.0155
            CHANNELS 6 Xposition Yposition Zposition Zrotation Xrotation Yrotation
            JOINT RightElbow
            {
              OFFSET 0.0994 -28.0499 -0.2431
              CHANNELS 6 Xposition Yposition Zposition Zrotation Xrotation Yrotation
              JOINT RightWrist
              {
                OFFSET -0.0679 -23.3996 -0.1402
                CHANNELS 6 Xposition Yposition Zposition Zrotation Xrotation Yrotation
                JOINT RightFinger1
                {
                  OFFSET -0.7932 -9.0691 2.5189
                  CHANNELS 6 Xposition Yposition Zposition Zrotation Xrotation Yrotation
                  JOINT RightFinger11
                  {
                    OFFSET 0.8272 -3.3923 0.5977
                    CHANNELS 6 Xposition Yposition Zposition Zrotation Xrotation Yrotation
                    JOINT RightFinger12
                    {
                      OFFSET 0.565 -2.3158 0.4082
                      CHANNELS 6 Xposition Yposition Zposition Zrotation Xrotation Yrotation
                      End Site
                      {
                        OFFSET 0.4919 -1.6479 0.2673
                      }
                    }
                  }
                }
                JOINT RightFinger2
                {
                  OFFSET -0.916 -9.2044 0.2193
                  CHANNELS 6 Xposition Yposition Zposition Zrotation Xrotation Yrotation
                  JOINT RightFinger21
                  {
                    OFFSET -0.0117 -4.1944 -0.0248
                    CHANNELS 6 Xposition Yposition Zposition Zrotation Xrotation Yrotation
                    JOINT RightFinger22
                    {
                      OFFSET -0.0071 -2.3249 -0.0142
                      CHANNELS 6 Xposition Yposition Zposition Zrotation Xrotation Yrotation
                      End Site
                      {
                        OFFSET 0.1475 -2.0882 0.0028
                      }
                    }
                  }
                }
                JOINT RightFinger3
                {
                  OFFSET -0.6113 -8.7231 -2.0637
                  CHANNELS 6 Xposition Yposition Zposition Zrotation Xrotation Yrotation
                  JOINT RightFinger31
                  {
                    OFFSET 0.1927 -3.8059 -0.2383
                    CHANNELS 6 Xposition Yposition Zposition Zrotation Xrotation Yrotation
                    JOINT RightFinger32
                    {
                      OFFSET 0.1091 -2.1688 -0.1362
                      CHANNELS 6 Xposition Yposition Zposition Zrotation Xrotation Yrotation
                      End Site
                      {
                        OFFSET 0.2358 -1.9176 -0.0906
                      }
                    }
                  }
                }
                JOINT RightFinger4
                {
                  OFFSET 0.6151 -8.0947 -3.564
                  CHANNELS 6 Xposition Yposition Zposition Zrotation Xrotation Yrotation
                  JOINT RightFinger41
                  {
                    OFFSET 0.4882 -2.341 -0.6462
                    CHANNELS 6 Xposition Yposition Zposition Zrotation Xrotation Yrotation
                    JOINT RightFinger42
                    {
                      OFFSET 0.3574 -1.7166 -0.4742
                      CHANNELS 6 Xposition Yposition Zposition Zrotation Xrotation Yrotation
                      End Site
                      {
                        OFFSET 0.4187 -1.5237 -0.3496
                      }
                    }
                  }
                }
                JOINT RightFinger0
                {
                  OFFSET 1.4199 -1.8761 1.4221
                  CHANNELS 6 Xposition Yposition Zposition Zrotation Xrotation Yrotation
                  JOINT RightFinger01
                  {
                    OFFSET 1.1472 -3.4929 2.6336
                    CHANNELS 6 Xposition Yposition Zposition Zrotation Xrotation Yrotation
                    JOINT RightFinger02
                    {
                      OFFSET 0.8229 -2.3 1.6571
                      CHANNELS 6 Xposition Yposition Zposition Zrotation Xrotation Yrotation
                      End Site
                      {
                        OFFSET 0.5822 -1.6914 1.1582
                      }
                    }
                  }
                }
              }
            }
          }
        }
      }
    }
  }
  JOINT RightHip
  {
    OFFSET -9.412 3.9771 -0.7758
    CHANNELS 6 Xposition Yposition Zposition Zrotation Xrotation Yrotation
    JOINT RightKnee
    {
      OFFSET -0.7531 -40.938 0
      CHANNELS 6 Xposition Yposition Zposition Zrotation Xrotation Yrotation
      JOINT RightAnkle
      {
        OFFSET 0 -40.1986 0
        CHANNELS 6 Xposition Yposition Zposition Zrotation Xrotation Yrotation
        JOINT RightToe
        {
          OFFSET 0 -4.4182 9.239
          CHANNELS 6 Xposition Yposition Zposition Zrotation Xrotation Yrotation
          End Site
          {
            OFFSET 0 0 6.1981
          }
        }
      }
    }
  }
  JOINT LeftHip
  {
    OFFSET 9.4119 3.9773 -0.7758
    CHANNELS 6 Xposition Yposition Zposition Zrotation Xrotation Yrotation
    JOINT LeftKnee
    {
      OFFSET 0.7532 -40.9383 0
      CHANNELS 6 Xposition Yposition Zposition Zrotation Xrotation Yrotation
      JOINT LeftAnkle
      {
        OFFSET 0 -40.1986 0
        CHANNELS 6 Xposition Yposition Zposition Zrotation Xrotation Yrotation
        JOINT LeftToe
        {
          OFFSET 0 -4.4182 9.239
          CHANNELS 6 Xposition Yposition Zposition Zrotation Xrotation Yrotation
          End Site
          {
            OFFSET 0 0 6.1981
          }
        }
      }
    }
  }
}
MOTION
Frames:	4
Frame Time:	0.0333333
5.80788e-005 67.184 3.4734 0 0 -0 0 8.7983 -4.7612 0 0 -0 0 8.0291 0.4195 0 0 -0 0 9.9351 -2.2114 0 0 -0 0 22.3885 -0.4656 0 0 -0 -0.0001 12.643 3.4389 0 0 -0 2.2603 21.606 7.4023 0 0 -12.5014 13.5163 -1.1332 -5.0146 88.1196 14.2451 10.6914 -0.0995 -28.05 -0.2431 -0.00160068 -0.00239207 0.000740045 0.0679 -23.3996 -0.1402 -8.4365e-005 7.00714e-005 -9.52055e-007 0.7932 -9.069 2.5189 9.93923e-017 -1.98785e-016 -1.59028e-015 -0.8272 -3.3923 0.5977 9.93923e-017 -5.96354e-016 -1.59028e-015 -0.5649 -2.3158 0.4082 -9.93923e-017 -5.96354e-016 -1.59028e-015 0.9159 -9.2044 0.2193 9.93923e-017 -1.98785e-016 -1.59028e-015 0.0117 -4.1944 -0.0248 -0.0128176 0.00232552 8.52707e-005 0.0071 -2.3249 -0.0142 9.93923e-017 5.96354e-016 -0 0.6113 -8.7231 -2.0637 9.93923e-017 -1.98785e-016 -1.59028e-015 -0.1927 -3.8059 -0.2383 -0.0160551 0.00299681 0.000857156 -0.1091 -2.1688 -0.1362 -2.48481e-016 0 3.18055e-015 -0.6151 -8.0947 -3.5641 9.93923e-017 -1.98785e-016 -1.59028e-015 -0.4882 -2.341 -0.6462 -0.0125865 0.0031206 0.00282719 -0.3575 -1.7167 -0.4742 0 1.98785e-016 -0 -1.42 -1.8761 1.4223 9.93923e-017 -1.98785e-016 -1.59028e-015 -1.1471 -3.4929 2.6334 9.93923e-017 -5.96354e-016 -1.59028e-015 -0.823 -2.3 1.6571 -9.93923e-017 -5.96354e-016 -1.59028e-015 -2.2603 21.606 7.4023 -0.865644 0.16582 7.03859 -13.5187 -1.1334 -5.0155 -88.0329 10.2057 -10.5567 0.0994 -28.0499 -0.2431 0.0015593 -0.00248883 -0.000788628 -0.0679 -23.3996 -0.1402 7.87605e-005 4.10553e-005 1.24965e-005 -0.7932 -9.0691 2.5189 -3.97569e-016 -7.95139e-016 3.18055e-015 0.8272 -3.3923 0.5977 -1.98785e-016 -3.97569e-016 3.18055e-015 0.565 -2.3158 0.4082 -1.98785e-016 0 3.18055e-015 -0.916 -9.2044 0.2193 -3.97569e-016 -7.95139e-016 3.18055e-015 -0.0117 -4.1944 -0.0248 0.0129473 0.00231697 -8.70038e-005 -0.0071 -2.3249 -0.0142 9.93923e-017 -7.95139e-016 1.59028e-015 -0.6113 -8.7231 -2.0637 -3.97569e-016 -7.95139e-016 3.18055e-015 0.1927 -3.8059 -0.2383 0.0163314 0.00303369 -0.000872333 0.1091 -2.1688 -0.1362 3.97569e-016 7.95139e-016 -3.18055e-015 0.6151 -8.0947 -3.564 -3.97569e-016 -7.95139e-016 3.18055e-015 0.4882 -2.341 -0.6462 0.0145763 0.00367772 -0.00326275 0.3574 -1.7166 -0.4742 9.93923e-017 -3.97569e-016 -0 1.4199 -1.8761 1.4221 -3.97569e-016 -7.95139e-016 3.18055e-015 1.1472 -3.4929 2.6336 -1.98785e-016 -3.97569e-016 3.18055e-015 0.8229 -2.3 1.6571 -1.98785e-016 0 3.18055e-015 -9.412 3.9771 -0.7758 3.42485 1.36937 -0.0640303 -0.7531 -40.938 0 0.000136572 0.69354 0.00145564 1.77636e-015 -40.1986 -1.11022e-016 -3.42573 -2.06297 -0.0607933 8.88178e-016 -4.4182 9.239 -3.19502e-024 0 -1.48106e-024 9.4119 3.9773 -0.7758 -3.42498 1.36123 0.0639712 0.7532 -40.9383 2.22045e-016 -6.769e-005 0.712612 -0.0012277 8.88179e-016 -40.1986 0 3.42582 -2.07388 0.0612819 -8.88178e-016 -4.4182 9.239 2.55305e-023 0 -2.31416e-026 
39.6061 17.9905 61.3468 89.3142 -89.7452 -90.4186 -7.10543e-015 8.7983 -4.7612 0.257385 0.853303 -0.120577 -7.10543e-015 8.0291 0.4195 0.516651 1.70606 -0.245027 -7.10543e-015 9.9351 -2.2114 0.516655 1.70605 -0.245029 -7.10543e-015 22.3885 -0.4656 -0.000188167 21.9965 7.91003e-005 -0.0001 12.643 3.4389 2.31129e-007 -24.0027 1.55768e-007 2.2603 21.606 7.4023 -26.2467 28.2994 -6.76301 13.5163 -1.1332 -5.0146 119.656 -53.4338 31.207 -0.0995 -28.05 -0.2431 -14.4712 -68.6487 -7.56575 0.0679 -23.3996 -0.1402 39.7353 15.1028 38.3886 0.7932 -9.069 2.5189 -9.93923e-016 6.36111e-015 2.38542e-015 -0.8272 -3.3923 0.5977 5.96354e-016 0 7.95139e-016 -0.5649 -2.3158 0.4082 -1.19271e-015 6.36111e-015 1.59028e-015 0.9159 -9.2044 0.2193 -9.93923e-016 6.36111e-015 2.38542e-015 0.0117 -4.1944 -0.0248 -0.0127774 0.00232078 8.73152e-005 0.0071 -2.3249 -0.0142 -3.84392e-006 -4.73315e-006 1.76239e-006 0.6113 -8.7231 -2.0637 -9.93923e-016 6.36111e-015 2.38542e-015 -0.1927 -3.8059 -0.2383 -0.0160808 0.00299958 0.000860326 -0.1091 -2.1688 -0.1362 2.18663e-015 -3.18055e-015 -7.95139e-016 -0.6151 -8.0947 -3.5641 -9.93923e-016 6.36111e-015 2.38542e-015 -0.4882 -2.341 -0.6462 -0.0125593 0.00311239 0.00281998 -0.3575 -1.7167 -0.4742 -6.15031e-006 1.71061e-006 2.8197e-006 -1.42 -1.8761 1.4223 -9.93923e-016 6.36111e-015 2.38542e-015 -1.1471 -3.4929 2.6334 5.96354e-016 0 7.95139e-016 -0.823 -2.3 1.6571 -1.19271e-015 6.36111e-015 1.59028e-015 -2.2603 21.606 7.4023 22.4287 17.7362 -2.94258 -13.5187 -1.1334 -5.0155 -106.296 -69.9073 -20.7294 0.0994 -28.0499 -0.2431 10.5011 -64.525 3.10425 -0.0679 -23.3996 -0.1402 -44.5113 12.9686 -24.74 -0.7932 -9.0691 2.5189 1.89158e-007 1.90202e-006 -9.82153e-008 0.8272 -3.3923 0.5977 -2.22639e-014 6.36111e-015 1.11319e-014 0.565 -2.3158 0.4082 -2.14687e-014 9.54166e-015 9.54166e-015 -0.916 -9.2044 0.2193 1.89158e-007 1.90202e-006 -9.82153e-008 -0.0117 -4.1944 -0.0248 0.0130245 0.00232741 -8.80479e-005 -0.0071 -2.3249 -0.0142 -0 -1.90833e-014 -0 -0.6113 -8.7231 -2.0637 1.89158e-007 1.90202e-006 -9.82153e-008 0.1927 -3.8059 -0.2383 0.0163677 0.00303876 -0.000878688 0.1091 -2.1688 -0.1362 1.59028e-015 -9.54166e-015 1.59028e-015 0.6151 -8.0947 -3.564 1.89158e-007 1.90202e-006 -9.82153e-008 0.4882 -2.341 -0.6462 0.0146127 0.00368144 -0.00326571 0.3574 -1.7166 -0.4742 7.95139e-016 0 -3.18055e-015 1.4199 -1.8761 1.4221 1.89158e-007 1.90202e-006 -9.82153e-008 1.1472 -3.4929 2.6336 -2.22639e-014 6.36111e-015 1.11319e-014 0.8229 -2.3 1.6571 -2.14687e-014 9.54166e-015 9.54166e-015 -9.412 3.9771 -0.7758 -92.2223 -43.6081 -109.665 -0.7531 -40.938 7.10543e-015 -149.417 69.2884 150.615 0 -40.1986 0 -10.1302 41.2481 5.49979 -7.10543e-015 -4.4182 9.239 7.15625e-015 -3.18055e-015 2.78299e-015 9.4119 3.9773 -0.7758 92.2201 -43.6054 109.652 0.7532 -40.9383 0 149.421 69.2856 -150.632 -1.77636e-015 -40.1986 -3.55271e-015 10.1232 41.2451 -5.50595 -8.88178e-016 -4.4182 9.239 7.16251e-006 5.3918e-006 -2.72215e-006 
39.6061 17.9905 61.3468 89.3108 -89.7452 -90.4221 -7.10543e-015 8.7983 -4.7612 0.256803 1.06403 -0.123133 7.10543e-015 8.0291 0.4195 0.516023 2.12749 -0.2511 0 9.9351 -2.2114 0.516023 2.12751 -0.2511 -7.10543e-015 22.3885 -0.4656 3.31341e-005 21.6085 -1.4417e-005 -0.0001 12.643 3.4389 -5.86147e-008 -24.0027 -1.36578e-007 2.2603 21.606 7.4023 -26.2196 27.5359 -6.3466 13.5163 -1.1332 -5.0146 119.971 -53.6923 31.4736 -0.0995 -28.05 -0.2431 -15.3921 -69.8585 -8.47405 0.0679 -23.3996 -0.1402 40.2359 15.6209 37.8391 0.7932 -9.069 2.5189 -6.94993e-007 -1.57367e-006 -1.55474e-006 -0.8272 -3.3923 0.5977 4.21234e-007 1.07418e-007 -1.13028e-006 -0.5649 -2.3158 0.4082 -3.47496e-007 -1.80847e-006 -7.7737e-007 0.9159 -9.2044 0.2193 -6.94993e-007 -1.57367e-006 -1.55474e-006 0.0117 -4.1944 -0.0248 -0.0128539 0.00233278 8.16544e-005 0.0071 -2.3249 -0.0142 2.47542e-007 -1.45876e-006 -1.51896e-006 0.6113 -8.7231 -2.0637 -6.94993e-007 -1.57367e-006 -1.55474e-006 -0.1927 -3.8059 -0.2383 -0.0160339 0.00299079 0.000853253 -0.1091 -2.1688 -0.1362 -6.21037e-007 9.77029e-008 -3.46243e-006 -0.6151 -8.0947 -3.5641 -6.94993e-007 -1.57367e-006 -1.55474e-006 -0.4882 -2.341 -0.6462 -0.0125266 0.00310341 0.00280881 -0.3575 -1.7167 -0.4742 3.47441e-007 3.28365e-009 7.77392e-007 -1.42 -1.8761 1.4223 -6.94993e-007 -1.57367e-006 -1.55474e-006 -1.1471 -3.4929 2.6334 4.21234e-007 1.07418e-007 -1.13028e-006 -0.823 -2.3 1.6571 -3.47496e-007 -1.80847e-006 -7.7737e-007 -2.2603 21.606 7.4023 22.4574 17.0267 -3.30706 -13.5187 -1.1334 -5.0155 -106.297 -69.9074 -20.73 0.0994 -28.0499 -0.2431 11.0929 -65.7767 3.66939 -0.0679 -23.3996 -0.1402 -44.9251 13.3922 -24.0841 -0.7932 -9.0691 2.5189 -9.86379e-007 -6.22729e-006 -2.31576e-006 0.8272 -3.3923 0.5977 -1.59028e-015 0 3.18055e-015 0.565 -2.3158 0.4082 -4.05023e-007 4.94697e-008 -1.67399e-006 -0.916 -9.2044 0.2193 -9.86379e-007 -6.22729e-006 -2.31576e-006 -0.0117 -4.1944 -0.0248 0.0130061 0.00232747 -8.77567e-005 -0.0071 -2.3249 -0.0142 -4.04873e-007 4.93695e-008 -1.674e-006 -0.6113 -8.7231 -2.0637 -9.86379e-007 -6.22729e-006 -2.31576e-006 0.1927 -3.8059 -0.2383 0.0163545 0.00304093 -0.000873578 0.1091 -2.1688 -0.1362 1.59028e-015 9.54166e-015 -0 0.6151 -8.0947 -3.564 -9.86379e-007 -6.22729e-006 -2.31576e-006 0.4882 -2.341 -0.6462 0.0146264 0.00369755 -0.00327307 0.3574 -1.7166 -0.4742 -5.29669e-031 -9.54166e-015 -3.18055e-015 1.4199 -1.8761 1.4221 -9.86379e-007 -6.22729e-006 -2.31576e-006 1.1472 -3.4929 2.6336 -1.59028e-015 0 3.18055e-015 0.8229 -2.3 1.6571 -4.05023e-007 4.94697e-008 -1.67399e-006 -9.412 3.9771 -0.7758 -92.2223 -43.6082 -109.665 -0.7531 -40.938 -7.10543e-015 -149.417 69.2884 150.615 -7.10543e-015 -40.1986 1.42109e-014 -10.1302 41.248 5.49976 7.10543e-015 -4.4182 9.239 -4.96962e-015 0 1.19271e-015 9.4119 3.9773 -0.7758 92.2201 -43.6054 109.652 0.7532 -40.9383 -7.10543e-015 149.421 69.2857 -150.632 3.55271e-015 -40.1986 0 10.1232 41.2451 -5.50596 -1.77636e-015 -4.4182 9.23901 -8.32483e-006 8.28502e-007 9.35663e-007 
39.6061 17.9905 61.3468 89.3108 -89.7452 -90.4221 0 8.7983 -4.7612 0.256342 1.27497 -0.12566 7.10543e-015 8.0291 0.4195 0.51567 2.54936 -0.25712 -7.10543e-015 9.9351 -2.2114 0.515672 2.54936 -0.257121 7.10543e-015 22.3885 -0.4656 4.72052e-005 21.2199 -2.0424e-005 -0.0001 12.643 3.4389 -2.3681e-007 -24.0027 -5.64608e-008 2.2603 21.606 7.4023 -26.1865 26.7713 -5.93245 13.5163 -1.1332 -5.0146 120.292 -53.9502 31.7452 -0.0995 -28.05 -0.2431 -16.4304 -71.0645 -9.49912 0.0679 -23.3996 -0.1402 40.7433 16.1348 37.2831 0.7932 -9.06901 2.5189 1.19271e-015 -6.36111e-015 -0 -0.8272 -3.3923 0.5977 1.78906e-015 -3.18055e-015 -0 -0.5649 -2.3158 0.4082 -3.97569e-016 -6.36111e-015 -2.38542e-015 0.9159 -9.20441 0.2193 1.19271e-015 -6.36111e-015 -0 0.0117 -4.1944 -0.0248 -0.0128017 0.00232274 8.4245e-005 0.0071 -2.3249 -0.0142 1.39149e-015 3.18055e-015 7.95139e-016 0.6113 -8.72311 -2.0637 1.19271e-015 -6.36111e-015 -0 -0.1927 -3.8059 -0.2383 -0.0160011 0.00298593 0.000852545 -0.1091 -2.1688 -0.1362 1.78906e-015 -3.18055e-015 -7.95139e-016 -0.6151 -8.09471 -3.5641 1.19271e-015 -6.36111e-015 -0 -0.4882 -2.341 -0.6462 -0.0126134 0.00312502 0.00283452 -0.3575 -1.7167 -0.4742 -7.95139e-016 0 -7.95139e-016 -1.42 -1.8761 1.4223 1.19271e-015 -6.36111e-015 -0 -1.1471 -3.4929 2.6334 1.78906e-015 -3.18055e-015 -0 -0.823 -2.3 1.6571 -3.97569e-016 -6.36111e-015 -2.38542e-015 -2.2603 21.606 7.4023 22.4811 16.3159 -3.6698 -13.5187 -1.1334 -5.0155 -106.293 -69.9064 -20.726 0.0994 -28.0499 -0.2431 11.7477 -67.0298 4.29879 -0.0679 -23.3996 -0.1402 -45.3449 13.8114 -23.4234 -0.7932 -9.0691 2.5189 -7.95139e-016 3.18055e-015 -0 0.8272 -3.3923 0.5977 1.76556e-031 6.36111e-015 -1.59028e-015 0.565 -2.3158 0.4082 -2.38542e-015 6.36111e-015 -3.18055e-015 -0.916 -9.2044 0.2193 -7.95139e-016 3.18055e-015 -0 -0.0117 -4.1944 -0.0248 0.0129455 0.00232419 -8.0711e-005 -0.0071 -2.3249 -0.0142 -3.53113e-031 -6.36111e-015 -3.18055e-015 -0.6113 -8.7231 -2.0637 -7.95139e-016 3.18055e-015 -0 0.1927 -3.8059 -0.2383 0.0163196 0.00303082 -0.000864736 0.1091 -2.1688 -0.1362 8.82781e-032 -3.18055e-015 1.59028e-015 0.6151 -8.0947 -3.564 -7.95139e-016 3.18055e-015 -0 0.4882 -2.341 -0.6462 0.0145161 0.00366543 -0.00324805 0.3574 -1.7166 -0.4742 -7.95139e-016 -3.18055e-015 3.18055e-015 1.4199 -1.8761 1.4221 -7.95139e-016 3.18055e-015 -0 1.1472 -3.4929 2.6336 1.76556e-031 6.36111e-015 -1.59028e-015 0.8229 -2.3 1.6571 -2.38542e-015 6.36111e-015 -3.18055e-015 -9.412 3.9771 -0.7758 -92.2223 -43.6082 -109.665 -0.7531 -40.938 0 -149.417 69.2884 150.615 7.10543e-015 -40.1986 -1.42109e-014 -10.1302 41.248 5.49976 0 -4.4182 9.239 1.05356e-014 0 1.19271e-015 9.4119 3.9773 -0.7758 92.2201 -43.6054 109.652 0.7532 -40.9383 -7.10543e-015 149.421 69.2856 -150.632 -4.44089e-015 -40.1986 -3.55271e-015 10.1232 41.2451 -5.50594 8.88178e-016 -4.4182 9.239 -5.55597e-006 1.66266e-006 -4.69529e-006 
